<?xml version="1.0" encoding="utf-8"?>
<svg version="1.1" xmlns:xlink="http://www.w3.org/1999/xlink" width="15px" height="15px" xmlns="http://www.w3.org/2000/svg">
  <g transform="matrix(1 0 0 1 -8 -6 )">
    <path d="M 14.8496993987976 13.3540372670807  C 14.9498997995992 13.4575569358178  15 13.5766045548654  15 13.7111801242236  C 15 13.8457556935818  14.9498997995992 13.9648033126294  14.8496993987976 14.0683229813665  L 14.0981963927856 14.8447204968944  C 13.997995991984 14.9482401656315  13.8827655310621 15  13.75250501002 15  C 13.622244488978 15  13.5070140280561 14.9482401656315  13.4068136272545 14.8447204968944  L 7.5 8.74223602484472  L 1.59318637274549 14.8447204968944  C 1.49298597194389 14.9482401656315  1.37775551102204 15  1.24749498997996 15  C 1.11723446893788 15  1.00200400801603 14.9482401656315  0.901803607214429 14.8447204968944  L 0.150300601202405 14.0683229813665  C 0.0501002004008018 13.9648033126294  0 13.8457556935818  0 13.7111801242236  C 0 13.5766045548654  0.0501002004008018 13.4575569358178  0.150300601202405 13.3540372670807  L 7.15430861723447 6.11801242236025  C 7.25450901803607 6.01449275362319  7.36973947895792 5.96273291925466  7.5 5.96273291925466  C 7.63026052104208 5.96273291925466  7.74549098196393 6.01449275362319  7.84569138276553 6.11801242236025  L 14.8496993987976 13.3540372670807  Z M 14.8496993987976 7.39130434782609  C 14.9498997995992 7.49482401656315  15 7.61387163561077  15 7.74844720496894  C 15 7.88302277432712  14.9498997995992 8.00207039337474  14.8496993987976 8.1055900621118  L 14.0981963927856 8.88198757763975  C 13.997995991984 8.98550724637681  13.8827655310621 9.03726708074534  13.75250501002 9.03726708074534  C 13.622244488978 9.03726708074534  13.5070140280561 8.98550724637681  13.4068136272545 8.88198757763975  L 7.5 2.77950310559006  L 1.59318637274549 8.88198757763975  C 1.49298597194389 8.98550724637681  1.37775551102204 9.03726708074534  1.24749498997996 9.03726708074534  C 1.11723446893788 9.03726708074534  1.00200400801603 8.98550724637681  0.901803607214429 8.88198757763975  L 0.150300601202405 8.1055900621118  C 0.0501002004008018 8.00207039337474  0 7.88302277432712  0 7.74844720496894  C 0 7.61387163561077  0.0501002004008018 7.49482401656315  0.150300601202405 7.39130434782609  L 7.15430861723447 0.15527950310559  C 7.25450901803607 0.0517598343685288  7.36973947895792 0  7.5 0  C 7.63026052104208 0  7.74549098196393 0.0517598343685288  7.84569138276553 0.15527950310559  L 14.8496993987976 7.39130434782609  Z " fill-rule="nonzero" fill="#000000" stroke="none" transform="matrix(1 0 0 1 8 6 )" />
  </g>
</svg>