<?xml version="1.0" encoding="utf-8"?>
<svg version="1.1" xmlns:xlink="http://www.w3.org/1999/xlink" width="131px" height="61px" xmlns="http://www.w3.org/2000/svg">
  <g transform="matrix(1 0 0 1 -779 117 )">
    <path d="M 779.5 -68.1764705882353  C 779.5 -68.1764705882353  779.5 -112  779.5 -112  C 779.5 -114.485281374239  781.514718625761 -116.5  784 -116.5  C 784 -116.5  905 -116.5  905 -116.5  C 907.485281374239 -116.5  909.5 -114.485281374239  909.5 -112  C 909.5 -112  909.5 -68.1764705882353  909.5 -68.1764705882353  C 909.5 -65.6911892139967  907.485281374239 -63.6764705882353  905 -63.6764705882353  C 905 -63.6764705882353  817.222487979258 -63.6764705882353  817.222487979258 -63.6764705882353  C 817.222487979258 -63.6764705882353  807.383333333333 -56.6154301952777  807.383333333333 -56.6154301952777  C 807.383333333333 -56.6154301952777  797.544178687409 -63.6764705882353  797.544178687409 -63.6764705882353  C 797.544178687409 -63.6764705882353  784 -63.6764705882353  784 -63.6764705882353  C 781.514718625761 -63.6764705882353  779.5 -65.6911892139967  779.5 -68.1764705882353  Z " fill-rule="nonzero" fill="#ffffff" stroke="none" />
    <path d="M 779 -68.1764705882353  C 779 -68.1764705882353  779 -112  779 -112  C 779 -114.761423749154  781.238576250846 -117  784 -117  C 784 -117  905 -117  905 -117  C 907.761423749154 -117  910 -114.761423749154  910 -112  C 910 -112  910 -68.1764705882353  910 -68.1764705882353  C 910 -65.4150468390813  907.761423749154 -63.1764705882353  905 -63.1764705882353  C 905 -63.1764705882353  817.383333333333 -63.1764705882353  817.383333333333 -63.1764705882353  C 817.383333333333 -63.1764705882353  807.383333333333 -56  807.383333333333 -56  C 807.383333333333 -56  797.383333333333 -63.1764705882353  797.383333333333 -63.1764705882353  C 797.383333333333 -63.1764705882353  784 -63.1764705882353  784 -63.1764705882353  C 781.238576250846 -63.1764705882353  779 -65.4150468390813  779 -68.1764705882353  Z M 780 -68.1764705882353  C 780 -65.9673315889121  781.790861000677 -64.1764705882353  784 -64.1764705882353  C 784 -64.1764705882353  797.705024041484 -64.1764705882353  797.705024041484 -64.1764705882353  C 797.705024041484 -64.1764705882353  807.383333333333 -57.2308603905553  807.383333333333 -57.2308603905553  C 807.383333333333 -57.2308603905553  817.061642625182 -64.1764705882353  817.061642625182 -64.1764705882353  C 817.061642625182 -64.1764705882353  905 -64.1764705882353  905 -64.1764705882353  C 907.209138999323 -64.1764705882353  909 -65.9673315889121  909 -68.1764705882353  C 909 -68.1764705882353  909 -112  909 -112  C 909 -114.209138999323  907.209138999323 -116  905 -116  C 905 -116  784 -116  784 -116  C 781.790861000677 -116  780 -114.209138999323  780 -112  C 780 -112  780 -68.1764705882353  780 -68.1764705882353  Z " fill-rule="nonzero" fill="#797979" stroke="none" />
  </g>
</svg>