<?xml version="1.0" encoding="utf-8"?>
<svg version="1.1" xmlns:xlink="http://www.w3.org/1999/xlink" width="11px" height="12px" xmlns="http://www.w3.org/2000/svg">
  <g transform="matrix(1 0 0 1 -12 -5 )">
    <path d="M 10.8897795591182 10.6832298136646  C 10.9632598530394 10.7660455486542  11 10.8612836438923  11 10.9689440993789  C 11 11.0766045548654  10.9632598530394 11.1718426501035  10.8897795591182 11.2546583850932  L 10.3386773547094 11.8757763975155  C 10.2651970607882 11.9585921325052  10.1806947227789 12  10.0851703406814 12  C 9.98964595858383 12  9.90514362057448 11.9585921325052  9.83166332665331 11.8757763975155  L 5.5 6.99378881987578  L 1.16833667334669 11.8757763975155  C 1.09485637942552 11.9585921325052  1.01035404141617 12  0.914829659318637 12  C 0.819305277221109 12  0.734802939211757 11.9585921325052  0.661322645290581 11.8757763975155  L 0.110220440881764 11.2546583850932  C 0.036740146960588 11.1718426501035  0 11.0766045548654  0 10.9689440993789  C 0 10.8612836438923  0.036740146960588 10.7660455486542  0.110220440881764 10.6832298136646  L 5.24649298597194 4.8944099378882  C 5.31997327989312 4.81159420289855  5.40447561790247 4.77018633540373  5.5 4.77018633540373  C 5.59552438209753 4.77018633540373  5.68002672010688 4.81159420289855  5.75350701402806 4.8944099378882  L 10.8897795591182 10.6832298136646  Z M 10.8897795591182 5.91304347826087  C 10.9632598530394 5.99585921325052  11 6.09109730848861  11 6.19875776397516  C 11 6.3064182194617  10.9632598530394 6.40165631469979  10.8897795591182 6.48447204968944  L 10.3386773547094 7.1055900621118  C 10.2651970607882 7.18840579710145  10.1806947227789 7.22981366459627  10.0851703406814 7.22981366459627  C 9.98964595858383 7.22981366459627  9.90514362057448 7.18840579710145  9.83166332665331 7.1055900621118  L 5.5 2.22360248447205  L 1.16833667334669 7.1055900621118  C 1.09485637942552 7.18840579710145  1.01035404141617 7.22981366459627  0.914829659318637 7.22981366459627  C 0.819305277221109 7.22981366459627  0.734802939211757 7.18840579710145  0.661322645290581 7.1055900621118  L 0.110220440881764 6.48447204968944  C 0.036740146960588 6.40165631469979  0 6.3064182194617  0 6.19875776397516  C 0 6.09109730848861  0.036740146960588 5.99585921325052  0.110220440881764 5.91304347826087  L 5.24649298597194 0.124223602484472  C 5.31997327989312 0.0414078674948231  5.40447561790247 0  5.5 0  C 5.59552438209753 0  5.68002672010688 0.0414078674948231  5.75350701402806 0.124223602484472  L 10.8897795591182 5.91304347826087  Z " fill-rule="nonzero" fill="#000000" stroke="none" transform="matrix(1 0 0 1 12 5 )" />
  </g>
</svg>